<?xml version="1.0" encoding="UTF-8" standalone="no"?>
<!-- Created with Inkscape (http://www.inkscape.org/) -->

<svg
   xmlns:dc="http://purl.org/dc/elements/1.1/"
   xmlns:cc="http://creativecommons.org/ns#"
   xmlns:rdf="http://www.w3.org/1999/02/22-rdf-syntax-ns#"
   xmlns:svg="http://www.w3.org/2000/svg"
   xmlns="http://www.w3.org/2000/svg"
   xmlns:sodipodi="http://sodipodi.sourceforge.net/DTD/sodipodi-0.dtd"
   xmlns:inkscape="http://www.inkscape.org/namespaces/inkscape"
   version="1.1"
   id="svg10"
   xml:space="preserve"
   width="2304"
   height="1728"
   viewBox="0 0 2304 1728"
   sodipodi:docname="boxTall .svg"
   inkscape:version="0.92.2 5c3e80d, 2017-08-06"><metadata
     id="metadata16"><rdf:RDF><cc:Work
         rdf:about=""><dc:format>image/svg+xml</dc:format><dc:type
           rdf:resource="http://purl.org/dc/dcmitype/StillImage" /><dc:title></dc:title></cc:Work></rdf:RDF></metadata><defs
     id="defs14"><clipPath
       clipPathUnits="userSpaceOnUse"
       id="clipPath50"><path
         d="M 0,1296 H 1728 V 0 H 0 Z"
         id="path48"
         inkscape:connector-curvature="0" /></clipPath></defs><sodipodi:namedview
     pagecolor="#ffffff"
     bordercolor="#666666"
     borderopacity="1"
     objecttolerance="10"
     gridtolerance="10"
     guidetolerance="10"
     inkscape:pageopacity="0"
     inkscape:pageshadow="2"
     inkscape:window-width="640"
     inkscape:window-height="480"
     id="namedview12"
     showgrid="false"
     inkscape:zoom="0.31597222"
     inkscape:cx="392.43956"
     inkscape:cy="1243.7802"
     inkscape:window-x="298"
     inkscape:window-y="73"
     inkscape:window-maximized="0"
     inkscape:current-layer="g18" /><g
     id="g18"
     inkscape:groupmode="layer"
     inkscape:label="boxTall "
     transform="matrix(1.3333333,0,0,-1.3333333,0,1728)"><g
       id="g20"
       transform="translate(613.4102,520.8564)"><path
         d="m 0,0 v -108 h 9 v -27 H 0 v -54 h -54 v -9 h -27 v 9 h -108 v -9 h -27 v 9 h -54 v 54 h -9 v 27 h 9 V 0 h -9 v 27 h 9 v 54 h 54 v 9 h 27 v -9 h 108 v 9 h 27 V 81 H 0 V 27 H 9 V 0 Z"
         style="fill:none;stroke:#ed1d24;stroke-width:0.75;stroke-linecap:butt;stroke-linejoin:miter;stroke-miterlimit:10;stroke-dasharray:none;stroke-opacity:1"
         id="path22"
         inkscape:connector-curvature="0" /></g><g
       id="g24"
       transform="translate(217.4731,321.7871)"><path
         d="m 0,0 h -189 v 260.279 h 9.36 V 270 H -189 v 9 h 9.36 v 9 H 89.641 v -9 H 99 v -9 h -9.359 v -9.721 H 99 L 99,0 H 0"
         style="fill:none;stroke:#ed1d24;stroke-width:0.75;stroke-linecap:butt;stroke-linejoin:miter;stroke-miterlimit:10;stroke-dasharray:none;stroke-opacity:1"
         id="path26"
         inkscape:connector-curvature="0" /></g><path
       d="m 253.473,656.717 h -27 v 9 h 27 z m -135,0 h -27 v 9 h 27 z m 198,-27 v 27 h -9 v 9 h 9 v 27 h -9 v 9 h 9 v 36 h -9 v 9 h 9 v 27 h -9 v 9"
       style="fill:none;stroke:#ed1d24;stroke-width:0.75;stroke-linecap:butt;stroke-linejoin:miter;stroke-miterlimit:10;stroke-dasharray:none;stroke-opacity:1"
       id="path28"
       inkscape:connector-curvature="0" /><g
       id="g30"
       transform="translate(316.4731,629.7168)"><path
         d="m 0,0 v 27 h -9 v 9 h 9 v 27 h -9 v 9 h 9 v 36 h -9 v 9 h 9 v 27 h -9 v 9 h 9 v 27 h -9 v 9 h 9 v 27 h -9 v 9 h 9 v 36 h -9 v 9 h 9 v 27 h -9 v 9 h -270 v -9 h -9 v -27 h 9 v -9 h -9 v -36 h 9 v -9 h -9 v -27 h 9 v -9 h -9 v -27 h 9 v -9 h -9 v -27 h 9 v -9 h -9 V 72 h 9 v -9 h -9 V 36 h 9 v -9 h -9 V 0"
         style="fill:none;stroke:#ed1d24;stroke-width:0.75;stroke-linecap:butt;stroke-linejoin:miter;stroke-miterlimit:10;stroke-dasharray:none;stroke-opacity:1"
         id="path32"
         inkscape:connector-curvature="0" /></g><g
       id="g34"
       transform="translate(28.4731,629.7168)"><path
         d="M 0,0 H 288"
         style="fill:none;stroke:#ed1d24;stroke-width:0.75;stroke-linecap:butt;stroke-linejoin:miter;stroke-miterlimit:10;stroke-dasharray:none;stroke-opacity:1"
         id="path36"
         inkscape:connector-curvature="0" /></g><path
       d="m 559.41,647.756 h -27 v 9 h 27 z m -135,0 h -27 v 9 h 27 z"
       style="fill:none;stroke:#ed1d24;stroke-width:0.75;stroke-linecap:butt;stroke-linejoin:miter;stroke-miterlimit:10;stroke-dasharray:none;stroke-opacity:1"
       id="path38"
       inkscape:connector-curvature="0" /><g
       id="g40"
       transform="translate(622.4102,620.7168)"><path
         d="m 0,0 h -288 v 27 h 9 v 9 h -9 v 27 h 9 v 9 h -9 v 36 h 9 v 9 h -9 v 27 h 9 v 9 h -9 v 27 h 9 v 9 h -9 v 27 h 9 v 9 h -9 v 36 h 9 v 9 h -9 v 27 h 9 v 9 h -9 v 9 H 0 v -9 h -9 v -9 h 9 v -27 h -9 v -9 h 9 v -36 h -9 v -9 h 9 v -27 h -9 v -9 h 9 v -27 h -9 v -9 h 9 v -27 h -9 v -9 H 0 V 72 H -9 V 63 H 0 V 36 h -9 v -9 h 9 z"
         style="fill:none;stroke:#ed1d24;stroke-width:0.75;stroke-linecap:butt;stroke-linejoin:miter;stroke-miterlimit:10;stroke-dasharray:none;stroke-opacity:1"
         id="path42"
         inkscape:connector-curvature="0" /></g><g
       id="g44"><g
         id="g46"
         clip-path="url(#clipPath50)"><path
           d="m 392.921,981.617 h 27 v -9 h -27 z m 135,0 h 27 v -9 h -27 z m 71.519,283.844 c 0,2.75 2.231,4.979 4.981,4.979 2.75,0 4.981,-2.229 4.981,-4.979 0,-2.399 -1.691,-4.399 -3.931,-4.88 -0.34,-0.07 -0.69,-0.11 -1.05,-0.11 -0.359,0 -0.71,0.04 -1.05,0.11 -2.24,0.481 -3.931,2.481 -3.931,4.88 z"
           style="fill:none;stroke:#ed1d24;stroke-width:0.75;stroke-linecap:butt;stroke-linejoin:miter;stroke-miterlimit:10;stroke-dasharray:none;stroke-opacity:1"
           id="path52"
           inkscape:connector-curvature="0" /><g
           id="g54"
           transform="translate(617.9102,1251.5962)"><path
             d="m 0,0 v -9 h -9 v -27 h 9 v -9 h -9 v -36 h 9 v -9 h -9 v -27 h 9 v -9 h -9 v -27 h 9 v -9 h -9 v -27 h 9 v -9 h -9 v -36 h 9 v -9 h -9 v -27 h 9 v -9 h -9 v -27 l -269.978,-0.018 v 27 h -9 v 9 h 9 v 27 h -9 v 9 h 9 v 36 h -9 v 9 h 9 v 27 h -9 v 9 h 9 v 27 h -9 v 9 h 9 v 27 h -9 v 9 h 9 v 36 h -9 v 9 h 9 v 27 h -9 v 9 h 9 v 9 l 251.989,0.003 v 4.5 c 0,7.46 6.04,13.5 13.5,13.5 7.46,0 13.5,-6.04 13.5,-13.5 v -22.5 h -9 v -27 h 9 v -9 h -9 v -36 h 9 v -9 h -9 v -27 h 9 v -9 h -9 v -27"
             style="fill:none;stroke:#ed1d24;stroke-width:0.75;stroke-linecap:butt;stroke-linejoin:miter;stroke-miterlimit:10;stroke-dasharray:none;stroke-opacity:1"
             id="path56"
             inkscape:connector-curvature="0" /></g><path
           d="m 244.484,981.617 h -27 v -9 h 27 z m -135,0 h -27 v -9 h 27 z m -71.52,283.844 c 0,2.75 -2.23,4.979 -4.98,4.979 -2.75,0 -4.981,-2.229 -4.981,-4.979 0,-2.399 1.691,-4.399 3.931,-4.88 0.34,-0.07 0.691,-0.11 1.05,-0.11 0.359,0 0.71,0.04 1.05,0.11 2.24,0.481 3.93,2.481 3.93,4.88 z"
           style="fill:none;stroke:#ed1d24;stroke-width:0.75;stroke-linecap:butt;stroke-linejoin:miter;stroke-miterlimit:10;stroke-dasharray:none;stroke-opacity:1"
           id="path58"
           inkscape:connector-curvature="0" /><g
           id="g60"
           transform="translate(19.4951,1251.5962)"><path
             d="M 0,0 V -9 H 9 V -36 H 0 v -9 H 9 V -81 H 0 v -9 h 9 v -27 H 0 v -9 h 9 v -27 H 0 v -9 h 9 v -27 H 0 v -9 h 9 v -36 H 0 v -9 h 9 v -27 H 0 v -9 h 9 v -27 l 269.978,-0.018 v 27 h 9 v 9 h -9 v 27 h 9 v 9 h -9 v 36 h 9 v 9 h -9 v 27 h 9 v 9 h -9 v 27 h 9 v 9 h -9 v 27 h 9 v 9 h -9 v 36 h 9 v 9 h -9 v 27 h 9 v 9 h -9 v 9 L 26.989,8.985 v 4.5 c 0,7.46 -6.04,13.5 -13.5,13.5 -7.46,0 -13.5,-6.04 -13.5,-13.5 v -22.5 h 9 v -27 h -9 v -9 h 9 v -36 h -9 v -9 h 9 v -27 h -9 v -9 h 9 v -27"
             style="fill:none;stroke:#ed1d24;stroke-width:0.75;stroke-linecap:butt;stroke-linejoin:miter;stroke-miterlimit:10;stroke-dasharray:none;stroke-opacity:1"
             id="path62"
             inkscape:connector-curvature="0" /></g><g
           id="g64"
           transform="translate(197.8428,197.3516)"><path
             d="M 0,0 -80.821,0.837"
             style="fill:none;stroke:#ed1d24;stroke-width:0.75;stroke-linecap:round;stroke-linejoin:round;stroke-miterlimit:10;stroke-dasharray:none;stroke-opacity:1"
             id="path66"
             inkscape:connector-curvature="0" /></g><g
           id="g68"
           transform="translate(198.6558,275.8584)"><path
             d="M 0,0 0.088,8.533"
             style="fill:none;stroke:#ed1d24;stroke-width:0.75;stroke-linecap:round;stroke-linejoin:round;stroke-miterlimit:10;stroke-dasharray:none;stroke-opacity:1"
             id="path70"
             inkscape:connector-curvature="0" /></g><g
           id="g72"
           transform="translate(88.9937,285.5273)"><path
             d="m 0,0 0.127,-6.747 0.225,-6.618 0.324,-6.49 0.449,-6.069 0.547,-5.939 0.607,-5.655 0.802,-5.248 0.831,-5.104 0.96,-4.833 1.054,-4.556 1.18,-4.133 1.245,-3.998 1.335,-3.569 1.464,-3.298 1.525,-3.012 1.616,-2.584 1.744,-2.312 1.772,-2.02 1.9,-1.748 1.958,-1.312 2.018,-1.026 2.143,-0.606 2.204,-0.319"
             style="fill:none;stroke:#ed1d24;stroke-width:0.75;stroke-linecap:round;stroke-linejoin:round;stroke-miterlimit:10;stroke-dasharray:none;stroke-opacity:1"
             id="path74"
             inkscape:connector-curvature="0" /></g><g
           id="g76"
           transform="translate(136.124,264.7617)"><path
             d="m 0,0 -1.237,-0.559 -1.151,-0.648 -1.107,-0.692 -1.064,-0.825 -1.021,-0.869 -0.933,-0.914 -0.845,-1.003 -0.804,-1.092 -0.715,-1.091 -0.628,-1.182 -0.54,-1.226 -0.453,-1.227 -0.365,-1.272 -0.278,-1.316 -0.189,-1.318 -0.058,-1.319 -0.013,-1.319 0.118,-1.321 0.206,-1.322 0.295,-1.279 0.427,-1.279 0.471,-1.238 0.559,-1.193 0.648,-1.15 0.736,-1.107 0.825,-1.02 0.869,-1.021 0.959,-0.889 1.047,-0.847 1.091,-0.803 1.093,-0.672 1.181,-0.628 1.227,-0.496 1.271,-0.453 1.272,-0.321 1.317,-0.234"
             style="fill:none;stroke:#ed1d24;stroke-width:0.75;stroke-linecap:round;stroke-linejoin:round;stroke-miterlimit:10;stroke-dasharray:none;stroke-opacity:1"
             id="path78"
             inkscape:connector-curvature="0" /></g><g
           id="g80"
           transform="translate(198.1709,229.0186)"><path
             d="M 0,0 -0.328,-31.667"
             style="fill:none;stroke:#ed1d24;stroke-width:0.75;stroke-linecap:round;stroke-linejoin:round;stroke-miterlimit:10;stroke-dasharray:none;stroke-opacity:1"
             id="path82"
             inkscape:connector-curvature="0" /></g><g
           id="g84"
           transform="translate(198.7441,284.3916)"><path
             d="M 0,0 -110.495,1.144"
             style="fill:none;stroke:#ed1d24;stroke-width:0.75;stroke-linecap:round;stroke-linejoin:round;stroke-miterlimit:10;stroke-dasharray:none;stroke-opacity:1"
             id="path86"
             inkscape:connector-curvature="0" /></g><g
           id="g88"
           transform="translate(140.335,229.6172)"><path
             d="M 0,0 57.836,-0.599"
             style="fill:none;stroke:#ed1d24;stroke-width:0.75;stroke-linecap:round;stroke-linejoin:round;stroke-miterlimit:10;stroke-dasharray:none;stroke-opacity:1"
             id="path90"
             inkscape:connector-curvature="0" /></g><g
           id="g92"
           transform="translate(198.6558,275.8584)"><path
             d="m 0,0 -1.775,-0.025 -1.742,0.018 -1.742,-0.026 -1.776,-0.07 -1.743,-0.07 -1.775,-0.069 -1.743,-0.114 -1.744,-0.114 -1.776,-0.114 -1.744,-0.157 -1.744,-0.202 -1.777,-0.202 -1.744,-0.202 -1.744,-0.202 -1.744,-0.246 -1.745,-0.289 -1.745,-0.29 -1.745,-0.29 -1.745,-0.29 -1.746,-0.334 -1.746,-0.378 -1.713,-0.378 -1.746,-0.378 -1.713,-0.422 -1.747,-0.422 -1.713,-0.421 -1.747,-0.466 -1.714,-0.466 -1.714,-0.511 -1.715,-0.51 -1.714,-0.553 -1.715,-0.555 -1.715,-0.554 -1.683,-0.598 -1.715,-0.598 -1.683,-0.599"
             style="fill:none;stroke:#ed1d24;stroke-width:0.75;stroke-linecap:round;stroke-linejoin:round;stroke-miterlimit:10;stroke-dasharray:none;stroke-opacity:1"
             id="path94"
             inkscape:connector-curvature="0" /></g><g
           id="g96"
           transform="translate(114.7251,246.3447)"><path
             d="M 0,0 C 0.149,0.075 0.33,0.014 0.405,-0.135 0.479,-0.284 0.418,-0.466 0.269,-0.54 0.12,-0.614 -0.061,-0.554 -0.136,-0.404 -0.21,-0.255 -0.149,-0.074 0,0 Z"
             style="fill:none;stroke:#ed1d24;stroke-width:0.75;stroke-linecap:round;stroke-linejoin:round;stroke-miterlimit:10;stroke-dasharray:none;stroke-opacity:1"
             id="path98"
             inkscape:connector-curvature="0" /></g><g
           id="g100"
           transform="translate(113.3296,246.0898)"><path
             d="m 0,0 c 0.008,-0.166 -0.12,-0.308 -0.286,-0.316 -0.167,-0.009 -0.309,0.12 -0.317,0.286 -0.008,0.167 0.12,0.308 0.286,0.316 C -0.15,0.295 -0.008,0.167 0,0 Z"
             style="fill:none;stroke:#ed1d24;stroke-width:0.75;stroke-linecap:round;stroke-linejoin:round;stroke-miterlimit:10;stroke-dasharray:none;stroke-opacity:1"
             id="path102"
             inkscape:connector-curvature="0" /></g></g></g></g></svg>